<svg xmlns="http://www.w3.org/2000/svg" width="260" height="200" viewBox="0 0 130 100">
  
  <g opacity="0.12" transform="translate(1.5,1.5)"><path d="M 31 44 H 40 A 6 6 0 0 1 46 50 V 50 A 6 6 0 0 1 40 56 H 31 A 6 6 0 0 1 25 50 V 50 A 6 6 0 0 1 31 44 Z " fill="#111111" /><path d="M 20 14 H 20 A 6 6 0 0 1 26 20 V 80 A 6 6 0 0 1 20 86 H 20 A 6 6 0 0 1 14 80 V 20 A 6 6 0 0 1 20 14 Z " fill="#111111" /><path d="M 50 14 H 50 A 6 6 0 0 1 56 20 V 80 A 6 6 0 0 1 50 86 H 50 A 6 6 0 0 1 44 80 V 20 A 6 6 0 0 1 50 14 Z " fill="#111111" /><path d="M 72 14 H 72 A 6 6 0 0 1 78 20 V 80 A 6 6 0 0 1 72 86 H 72 A 6 6 0 0 1 66 80 V 20 A 6 6 0 0 1 72 14 Z " fill="#111111" /><path d="M 84 74 H 116 A 6 6 0 0 1 122 80 V 80 A 6 6 0 0 1 116 86 H 84 A 6 6 0 0 1 78 80 V 80 A 6 6 0 0 1 84 74 Z " fill="#111111" /></g>
  <g><path d="M 31 44 H 40 A 6 6 0 0 1 46 50 V 50 A 6 6 0 0 1 40 56 H 31 A 6 6 0 0 1 25 50 V 50 A 6 6 0 0 1 31 44 Z " fill="#111111" fill-rule="evenodd"/><path d="M 20 14 H 20 A 6 6 0 0 1 26 20 V 80 A 6 6 0 0 1 20 86 H 20 A 6 6 0 0 1 14 80 V 20 A 6 6 0 0 1 20 14 Z M 23.5 20 A 3.5 3.5 0 1 0 16.5 20 A 3.5 3.5 0 1 0 23.5 20 Z M 23.5 50 A 3.5 3.5 0 1 0 16.5 50 A 3.5 3.5 0 1 0 23.5 50 Z M 23.5 80 A 3.5 3.5 0 1 0 16.5 80 A 3.5 3.5 0 1 0 23.5 80 Z " fill="#111111" fill-rule="evenodd"/><path d="M 50 14 H 50 A 6 6 0 0 1 56 20 V 80 A 6 6 0 0 1 50 86 H 50 A 6 6 0 0 1 44 80 V 20 A 6 6 0 0 1 50 14 Z M 53.5 20 A 3.5 3.5 0 1 0 46.5 20 A 3.5 3.5 0 1 0 53.5 20 Z M 53.5 50 A 3.5 3.5 0 1 0 46.5 50 A 3.5 3.5 0 1 0 53.5 50 Z M 53.5 80 A 3.5 3.5 0 1 0 46.5 80 A 3.5 3.5 0 1 0 53.5 80 Z " fill="#111111" fill-rule="evenodd"/><path d="M 72 14 H 72 A 6 6 0 0 1 78 20 V 80 A 6 6 0 0 1 72 86 H 72 A 6 6 0 0 1 66 80 V 20 A 6 6 0 0 1 72 14 Z M 75.5 20 A 3.5 3.5 0 1 0 68.5 20 A 3.5 3.5 0 1 0 75.5 20 Z M 75.5 50 A 3.5 3.5 0 1 0 68.5 50 A 3.5 3.5 0 1 0 75.5 50 Z M 75.5 80 A 3.5 3.5 0 1 0 68.5 80 A 3.5 3.5 0 1 0 75.5 80 Z " fill="#111111" fill-rule="evenodd"/><path d="M 84 74 H 116 A 6 6 0 0 1 122 80 V 80 A 6 6 0 0 1 116 86 H 84 A 6 6 0 0 1 78 80 V 80 A 6 6 0 0 1 84 74 Z M 113.5 80 A 3.5 3.5 0 1 0 106.5 80 A 3.5 3.5 0 1 0 113.5 80 Z " fill="#111111" fill-rule="evenodd"/></g>
</svg>
