<svg xmlns="http://www.w3.org/2000/svg" viewBox="0 0 765 359"><path fill="#818181" d="M182.99 106.25c4.88 1.25 9.02 4.38 9.25 9.83q.49 11.94.46 23.92c-.02 5.53.31 12.76-5.67 15.18q-18.41 7.44-35.04 8.81c-24.89 2.06-54.17 2.71-80.4-3.4q-11.15-2.59-18.04-6.62c-1.73-1.01-2.54-3.71-2.55-5.86 0-10.14.52-20.57-.51-30.65-.85-8.45 8.28-10.92 14.54-12.64 30.51-8.4 62.02-8.8 93.21-4.07 8.12 1.23 16.57 3.41 24.75 5.5Zm-2.63 9.84q-4.27-2.08-8.89-3.24c-18.97-4.77-38.63-7.44-58.21-6.54q-20.4.95-40.49 4.8-5.02.97-9.15 3.86-1.81 1.27.34 1.79 21.94 5.3 44.54 5.97 22 .65 44 .09 14.42-.36 27.75-4.88 2.3-.79.11-1.85Z"/><path fill="#656565" d="M370.76 182.01a67.35 65.32 0 0 1-67.35 65.32 67.35 65.32 0 0 1-67.35-65.32 67.35 65.32 0 0 1 67.35-65.32 67.35 65.32 0 0 1 67.35 65.32Zm-57.4-48.49c-36.91-7.22-65.14 25.2-57.07 60.37 7.13 31.13 40.62 46.53 68.86 32.73 40.74-19.9 33.41-84.26-11.79-93.1Zm321.54 49.54c-2.24-39.95 31.44-66.85 69.4-66.16q10.68.19 19.47 3.91 10.2 4.31 18.3 12.3a1 1 0 0 1 0 1.43l-10.63 10.32a1.01 1 46.4 0 1-1.43-.04q-12.51-13.43-31.51-12c-67.17 5.06-54.78 109.6 8.84 97.83q15.98-2.95 26.57-15.12a1 1 0 0 1 1.38-.13l10.75 8.67a1 .99 39.1 0 1 .15 1.4q-14.01 17.33-34.44 20.78c-42.74 7.22-74.48-20.99-76.85-63.19ZM500.02 198c-5.48 31.22-31.36 45.91-61.09 46.45q-20.83.38-41.69.28a1 1 0 0 1-.99-1V120.51a1 1 0 0 1 1-1q19.92-.04 40 .07c45.75.26 70.43 34.78 62.77 78.42Zm-39.88 26.58c21.64-8.82 24.5-34.93 21.71-54.32-3.46-24.05-21.89-35.36-44.6-35.05q-11.16.15-21.98-.06a1 1 0 0 0-1.02 1v91.65a1 .99 89.7 0 0 1 1q10.07-.03 20.12-.09c9.75-.05 16.56-.79 24.77-4.13Zm130.36-45.31q3.65.85 7.1 3.11c13.08 8.53 15.58 22.42 12.59 36.86-3.62 17.47-18.94 24.92-35.63 25.21q-23.27.4-46.56.27a1.01 1 .3 0 1-1-1V120.51a1.01 1-.3 0 1 1-1q19.67-.04 39.5-.05c16.63-.01 33.75 5.98 37.02 24.52 1.6 9.08.14 21.03-6.13 28.1q-3.28 3.69-8.01 5.67-2.28.95.12 1.52Zm-5.5-18.91c4.75-12.97-3.96-25.16-17.77-25.11q-10.51.04-21.22-.06a1 .99-89.4 0 0-1.01 1v34.94a1 .99-89.1 0 0 .96 1q7.59.3 14.98.07c10.09-.31 19.95-.61 24.06-11.84Zm-12.72 68.23c14.48-.26 21.5-10.27 19.73-24.11-1.29-10.07-9.36-16.18-19.33-16.19q-13.35-.01-26.67-.12a1.01 1 0 0 0-1.01 1v38.56a1 1 0 0 0 .99 1q10.92.13 26.29-.14Zm-447.47-49.2q25.32.67 49.62-6.22 8.81-2.5 16.71-7.11a1 1 0 0 1 1.5.79q1.04 14.01-.51 29.4c-.41 4.03-1.79 5.86-5.72 7.26q-21.61 7.73-45.85 9.56c-24.8 1.88-48.71 1.03-72.32-5.04q-9.52-2.45-14.68-5.84c-4.07-2.67-2.48-6.78-2.53-10.33q-.16-12.18.09-24.33.03-1.74 1.52-.83 12.61 7.71 28.1 9.78 12.62 1.69 15.09 1.81 14.48.72 28.98 1.1Z"/><path fill="#656565" d="M67.44 221.32c37.22 7.71 76.61 7.59 113.56-1.54q4.2-1.04 9.9-5.27 1.57-1.16 1.59.79.12 9.38.26 18.75c.06 3.57-.47 7.29-.72 10.76q-.22 3.01-2.89 4.42c-14.83 7.83-32.8 11.12-49.39 11.72-13.25.48-88.59 2.21-88.68-17.69Q51.01 229.12 51 215q0-2.14 1.64-.77 6.42 5.35 14.8 7.09Z"/></svg>